<svg width="24" height="45" viewBox="0 0 24 45" fill="none" xmlns="http://www.w3.org/2000/svg">
<path d="M15.0985 9.30708C15.0985 11.5029 17.306 13.283 19.6861 13.283C22.0662 13.283 23.9956 11.5029 23.9956 9.30708C23.9956 7.11125 22.0662 5.33118 19.6861 5.33118C17.306 5.33118 15.0985 7.11125 15.0985 9.30708Z" fill="#5F9060"/>
<path d="M0.918436 9.30708C0.918436 11.5029 2.84789 13.283 5.22798 13.283C7.60808 13.283 9.53753 11.5029 9.53753 9.30708C9.81556 6.77696 7.60808 5.33118 5.22798 5.33118C2.84789 5.33118 0.918436 7.11125 0.918436 9.30708Z" fill="#5F9060"/>
<path d="M3.9771 16.777C3.9771 18.9729 5.90655 20.753 8.28664 20.753C10.6667 20.753 12.5962 18.9729 12.5962 16.777C12.5962 14.5812 10.6667 12.5602 8.28664 12.5602C5.90655 12.5602 3.9771 14.5812 3.9771 16.777Z" fill="#5F9060"/>
<path d="M12.318 16.4156C12.318 18.6114 14.5254 20.753 16.9055 20.753C19.2856 20.753 21.2151 18.9729 21.2151 16.7771C21.2151 14.5812 19.2856 12.8011 16.9055 12.8011C14.5254 12.8011 12.318 14.2198 12.318 16.4156Z" fill="#5F9060"/>
<ellipse cx="4.30955" cy="3.97591" rx="4.30955" ry="3.97591" transform="matrix(-1 0 0 1 16.7666 0.993896)" fill="#5F9060"/>
<rect width="2.78035" height="4.33735" transform="matrix(-1 0 0 1 16.4885 6.53601)" fill="#5F9060"/>
<rect width="2.78035" height="4.33735" transform="matrix(-1 0 0 1 17.8789 10.1506)" fill="#5F9060"/>
<rect width="2.78035" height="4.33735" transform="matrix(-1 0 0 1 13.9861 13.0421)" fill="#5F9060"/>
<rect width="2.78035" height="4.33735" transform="matrix(-1 0 0 1 9.81567 10.3914)" fill="#5F9060"/>
<rect width="2.78035" height="4.33735" transform="matrix(-1 0 0 1 11.2061 6.53601)" fill="#5F9060"/>
<ellipse cx="3.61446" cy="3.13253" rx="3.61446" ry="3.13253" transform="matrix(-1 0 0 1 16.2107 7.74084)" fill="#3E4F66"/>
<path d="M13.5084 17.3891C13.4639 16.9725 13.1124 16.6565 12.6934 16.6565V16.6565C12.1993 16.6565 11.8175 17.0903 11.8804 17.5804L13.2687 28.409C13.3759 29.2456 13.3813 30.0921 13.2846 30.93L11.8676 43.2106C11.8113 43.6985 12.1927 44.1264 12.6838 44.1264V44.1264C13.107 44.1264 13.4611 43.8048 13.5016 43.3834L14.6932 30.9901C14.7777 30.1113 14.7731 29.2262 14.6793 28.3484L13.5084 17.3891Z" fill="#3E4F66"/>
</svg>
