<svg width="213" height="536" viewBox="0 0 213 536" fill="none" xmlns="http://www.w3.org/2000/svg">
<rect width="6.60217" height="24.0553" rx="3.30109" transform="matrix(0.947866 0.318671 -0.507905 0.861413 26.0059 408.255)" fill="#3E4F66" fill-opacity="0.69"/>
<rect width="6.60217" height="24.0553" rx="3.30109" transform="matrix(0.947866 0.318671 -0.507905 0.861413 88.8188 404.784)" fill="#3E4F66" fill-opacity="0.69"/>
<rect width="6.60217" height="24.0553" rx="3.30109" transform="matrix(0.947866 0.318671 -0.507905 0.861413 50.5181 407.098)" fill="#3E4F66" fill-opacity="0.69"/>
<rect width="6.60217" height="24.0553" rx="3.30109" transform="matrix(0.947866 0.318671 -0.507905 0.861413 189.932 415.196)" fill="#3E4F66" fill-opacity="0.69"/>
<rect width="6.60217" height="24.0553" rx="3.30109" transform="matrix(0.947866 0.318671 -0.507905 0.861413 125.587 415.196)" fill="#3E4F66" fill-opacity="0.69"/>
<rect width="6.60217" height="24.0553" rx="3.30109" transform="matrix(0.947866 0.318671 -0.507905 0.861413 157.76 399)" fill="#3E4F66" fill-opacity="0.69"/>
<rect width="6.60217" height="24.0553" rx="3.30109" transform="matrix(0.947866 0.318671 -0.507905 0.861413 12.2178 438.333)" fill="#3E4F66" fill-opacity="0.69"/>
<rect width="6.60217" height="24.0553" rx="3.30109" transform="matrix(0.947866 0.318671 -0.507905 0.861413 85.7549 438.333)" fill="#3E4F66" fill-opacity="0.69"/>
<rect width="6.60217" height="24.0553" rx="3.30109" transform="matrix(0.947866 0.318671 -0.507905 0.861413 56.6462 440.646)" fill="#3E4F66" fill-opacity="0.69"/>
<rect width="6.60217" height="24.0553" rx="3.30109" transform="matrix(0.947866 0.318671 -0.507905 0.861413 114.863 459.156)" fill="#3E4F66" fill-opacity="0.69"/>
<rect width="6.60217" height="24.0553" rx="3.30109" transform="matrix(0.947866 0.318671 -0.507905 0.861413 131.715 475.352)" fill="#3E4F66" fill-opacity="0.69"/>
<rect width="6.60217" height="24.0553" rx="3.30109" transform="matrix(0.947866 0.318671 -0.507905 0.861413 12.2178 496.175)" fill="#3E4F66" fill-opacity="0.69"/>
<rect width="6.60217" height="24.0553" rx="3.30109" transform="matrix(0.947866 0.318671 -0.507905 0.861413 35.198 505.43)" fill="#3E4F66" fill-opacity="0.69"/>
<rect width="6.60217" height="24.0553" rx="3.30109" transform="matrix(0.947866 0.318671 -0.507905 0.861413 122.423 512.371)" fill="#3E4F66" fill-opacity="0.69"/>
<rect width="6.60217" height="24.0553" rx="3.30109" transform="matrix(0.947866 0.318671 -0.507905 0.861413 32.134 470.725)" fill="#3E4F66" fill-opacity="0.69"/>
<rect width="6.60217" height="24.0553" rx="3.30109" transform="matrix(0.947866 0.318671 -0.507905 0.861413 61.2424 479.979)" fill="#3E4F66" fill-opacity="0.69"/>
<rect width="6.60217" height="24.0553" rx="3.30109" transform="matrix(0.947866 0.318671 -0.507905 0.861413 82.6907 491.548)" fill="#3E4F66" fill-opacity="0.69"/>
<rect width="6.60217" height="24.0553" rx="3.30109" transform="matrix(0.947866 0.318671 -0.507905 0.861413 163.888 491.548)" fill="#3E4F66" fill-opacity="0.69"/>
<rect width="6.60217" height="24.0553" rx="3.30109" transform="matrix(0.947866 0.318671 -0.507905 0.861413 188.4 459.156)" fill="#3E4F66" fill-opacity="0.69"/>
<rect width="6.60217" height="24.0553" rx="3.30109" transform="matrix(0.947866 0.318671 -0.507905 0.861413 154.696 438.333)" fill="#3E4F66" fill-opacity="0.69"/>
<rect width="6.60217" height="24.0553" rx="3.30109" transform="matrix(0.947866 0.318671 -0.507905 0.861413 188.4 496.175)" fill="#3E4F66" fill-opacity="0.69"/>
<rect width="6.60217" height="24.0553" rx="3.30109" transform="matrix(0.947866 0.318671 -0.507905 0.861413 35.0059 272.255)" fill="#3E4F66" fill-opacity="0.69"/>
<rect width="6.60217" height="24.0553" rx="3.30109" transform="matrix(0.947866 0.318671 -0.507905 0.861413 97.8188 268.784)" fill="#3E4F66" fill-opacity="0.69"/>
<rect width="6.60217" height="24.0553" rx="3.30109" transform="matrix(0.947866 0.318671 -0.507905 0.861413 59.5181 271.098)" fill="#3E4F66" fill-opacity="0.69"/>
<rect width="6.60217" height="24.0553" rx="3.30109" transform="matrix(0.947866 0.318671 -0.507905 0.861413 198.932 279.196)" fill="#3E4F66" fill-opacity="0.69"/>
<rect width="6.60217" height="24.0553" rx="3.30109" transform="matrix(0.947866 0.318671 -0.507905 0.861413 134.587 279.196)" fill="#3E4F66" fill-opacity="0.69"/>
<rect width="6.60217" height="24.0553" rx="3.30109" transform="matrix(0.947866 0.318671 -0.507905 0.861413 166.76 263)" fill="#3E4F66" fill-opacity="0.69"/>
<rect width="6.60217" height="24.0553" rx="3.30109" transform="matrix(0.947866 0.318671 -0.507905 0.861413 21.2178 302.333)" fill="#3E4F66" fill-opacity="0.69"/>
<rect width="6.60217" height="24.0553" rx="3.30109" transform="matrix(0.947866 0.318671 -0.507905 0.861413 94.7549 302.333)" fill="#3E4F66" fill-opacity="0.69"/>
<rect width="6.60217" height="24.0553" rx="3.30109" transform="matrix(0.947866 0.318671 -0.507905 0.861413 65.6462 304.646)" fill="#3E4F66" fill-opacity="0.69"/>
<rect width="6.60217" height="24.0553" rx="3.30109" transform="matrix(0.947866 0.318671 -0.507905 0.861413 123.863 323.156)" fill="#3E4F66" fill-opacity="0.69"/>
<rect width="6.60217" height="24.0553" rx="3.30109" transform="matrix(0.947866 0.318671 -0.507905 0.861413 140.715 339.352)" fill="#3E4F66" fill-opacity="0.69"/>
<rect width="6.60217" height="24.0553" rx="3.30109" transform="matrix(0.947866 0.318671 -0.507905 0.861413 21.2178 360.175)" fill="#3E4F66" fill-opacity="0.69"/>
<rect width="6.60217" height="24.0553" rx="3.30109" transform="matrix(0.947866 0.318671 -0.507905 0.861413 44.198 369.43)" fill="#3E4F66" fill-opacity="0.69"/>
<rect width="6.60217" height="24.0553" rx="3.30109" transform="matrix(0.947866 0.318671 -0.507905 0.861413 131.423 376.371)" fill="#3E4F66" fill-opacity="0.69"/>
<rect width="6.60217" height="24.0553" rx="3.30109" transform="matrix(0.947866 0.318671 -0.507905 0.861413 41.134 334.725)" fill="#3E4F66" fill-opacity="0.69"/>
<rect width="6.60217" height="24.0553" rx="3.30109" transform="matrix(0.947866 0.318671 -0.507905 0.861413 70.2424 343.979)" fill="#3E4F66" fill-opacity="0.69"/>
<rect width="6.60217" height="24.0553" rx="3.30109" transform="matrix(0.947866 0.318671 -0.507905 0.861413 91.6907 355.548)" fill="#3E4F66" fill-opacity="0.69"/>
<rect width="6.60217" height="24.0553" rx="3.30109" transform="matrix(0.947866 0.318671 -0.507905 0.861413 172.888 355.548)" fill="#3E4F66" fill-opacity="0.69"/>
<rect width="6.60217" height="24.0553" rx="3.30109" transform="matrix(0.947866 0.318671 -0.507905 0.861413 197.4 323.156)" fill="#3E4F66" fill-opacity="0.69"/>
<rect width="6.60217" height="24.0553" rx="3.30109" transform="matrix(0.947866 0.318671 -0.507905 0.861413 163.696 302.333)" fill="#3E4F66" fill-opacity="0.69"/>
<rect width="6.60217" height="24.0553" rx="3.30109" transform="matrix(0.947866 0.318671 -0.507905 0.861413 197.4 360.175)" fill="#3E4F66" fill-opacity="0.69"/>
<rect width="6.60217" height="24.0553" rx="3.30109" transform="matrix(0.947866 0.318671 -0.507905 0.861413 33.0059 145.255)" fill="#3E4F66" fill-opacity="0.69"/>
<rect width="6.60217" height="24.0553" rx="3.30109" transform="matrix(0.947866 0.318671 -0.507905 0.861413 95.8188 141.784)" fill="#3E4F66" fill-opacity="0.69"/>
<rect width="6.60217" height="24.0553" rx="3.30109" transform="matrix(0.947866 0.318671 -0.507905 0.861413 57.5181 144.098)" fill="#3E4F66" fill-opacity="0.69"/>
<rect width="6.60217" height="24.0553" rx="3.30109" transform="matrix(0.947866 0.318671 -0.507905 0.861413 196.932 152.196)" fill="#3E4F66" fill-opacity="0.69"/>
<rect width="6.60217" height="24.0553" rx="3.30109" transform="matrix(0.947866 0.318671 -0.507905 0.861413 132.587 152.196)" fill="#3E4F66" fill-opacity="0.69"/>
<rect width="6.60217" height="24.0553" rx="3.30109" transform="matrix(0.947866 0.318671 -0.507905 0.861413 164.76 136)" fill="#3E4F66" fill-opacity="0.69"/>
<rect width="6.60217" height="24.0553" rx="3.30109" transform="matrix(0.947866 0.318671 -0.507905 0.861413 19.2178 175.333)" fill="#3E4F66" fill-opacity="0.69"/>
<rect width="6.60217" height="24.0553" rx="3.30109" transform="matrix(0.947866 0.318671 -0.507905 0.861413 92.7549 175.333)" fill="#3E4F66" fill-opacity="0.69"/>
<rect width="6.60217" height="24.0553" rx="3.30109" transform="matrix(0.947866 0.318671 -0.507905 0.861413 63.6462 177.646)" fill="#3E4F66" fill-opacity="0.69"/>
<rect width="6.60217" height="24.0553" rx="3.30109" transform="matrix(0.947866 0.318671 -0.507905 0.861413 121.863 196.156)" fill="#3E4F66" fill-opacity="0.69"/>
<rect width="6.60217" height="24.0553" rx="3.30109" transform="matrix(0.947866 0.318671 -0.507905 0.861413 138.715 212.352)" fill="#3E4F66" fill-opacity="0.69"/>
<rect width="6.60217" height="24.0553" rx="3.30109" transform="matrix(0.947866 0.318671 -0.507905 0.861413 19.2178 233.175)" fill="#3E4F66" fill-opacity="0.69"/>
<rect width="6.60217" height="24.0553" rx="3.30109" transform="matrix(0.947866 0.318671 -0.507905 0.861413 42.198 242.43)" fill="#3E4F66" fill-opacity="0.69"/>
<rect width="6.60217" height="24.0553" rx="3.30109" transform="matrix(0.947866 0.318671 -0.507905 0.861413 129.423 249.371)" fill="#3E4F66" fill-opacity="0.69"/>
<rect width="6.60217" height="24.0553" rx="3.30109" transform="matrix(0.947866 0.318671 -0.507905 0.861413 39.134 207.725)" fill="#3E4F66" fill-opacity="0.69"/>
<rect width="6.60217" height="24.0553" rx="3.30109" transform="matrix(0.947866 0.318671 -0.507905 0.861413 68.2424 216.979)" fill="#3E4F66" fill-opacity="0.69"/>
<rect width="6.60217" height="24.0553" rx="3.30109" transform="matrix(0.947866 0.318671 -0.507905 0.861413 89.6907 228.548)" fill="#3E4F66" fill-opacity="0.69"/>
<rect width="6.60217" height="24.0553" rx="3.30109" transform="matrix(0.947866 0.318671 -0.507905 0.861413 170.888 228.548)" fill="#3E4F66" fill-opacity="0.69"/>
<rect width="6.60217" height="24.0553" rx="3.30109" transform="matrix(0.947866 0.318671 -0.507905 0.861413 195.4 196.156)" fill="#3E4F66" fill-opacity="0.69"/>
<rect width="6.60217" height="24.0553" rx="3.30109" transform="matrix(0.947866 0.318671 -0.507905 0.861413 161.696 175.333)" fill="#3E4F66" fill-opacity="0.69"/>
<rect width="6.60217" height="24.0553" rx="3.30109" transform="matrix(0.947866 0.318671 -0.507905 0.861413 195.4 233.175)" fill="#3E4F66" fill-opacity="0.69"/>
<rect width="6.60217" height="24.0553" rx="3.30109" transform="matrix(0.947866 0.318671 -0.507905 0.861413 42.0059 9.25488)" fill="#3E4F66" fill-opacity="0.69"/>
<rect width="6.60217" height="24.0553" rx="3.30109" transform="matrix(0.947866 0.318671 -0.507905 0.861413 104.819 5.78418)" fill="#3E4F66" fill-opacity="0.69"/>
<rect width="6.60217" height="24.0553" rx="3.30109" transform="matrix(0.947866 0.318671 -0.507905 0.861413 66.5181 8.0979)" fill="#3E4F66" fill-opacity="0.69"/>
<rect width="6.60217" height="24.0553" rx="3.30109" transform="matrix(0.947866 0.318671 -0.507905 0.861413 205.932 16.1958)" fill="#3E4F66" fill-opacity="0.69"/>
<rect width="6.60217" height="24.0553" rx="3.30109" transform="matrix(0.947866 0.318671 -0.507905 0.861413 141.587 16.1958)" fill="#3E4F66" fill-opacity="0.69"/>
<rect width="6.60217" height="24.0553" rx="3.30109" transform="matrix(0.947866 0.318671 -0.507905 0.861413 173.76 0)" fill="#3E4F66" fill-opacity="0.69"/>
<rect width="6.60217" height="24.0553" rx="3.30109" transform="matrix(0.947866 0.318671 -0.507905 0.861413 28.2178 39.3329)" fill="#3E4F66" fill-opacity="0.69"/>
<rect width="6.60217" height="24.0553" rx="3.30109" transform="matrix(0.947866 0.318671 -0.507905 0.861413 101.755 39.3329)" fill="#3E4F66" fill-opacity="0.69"/>
<rect width="6.60217" height="24.0553" rx="3.30109" transform="matrix(0.947866 0.318671 -0.507905 0.861413 72.6462 41.6465)" fill="#3E4F66" fill-opacity="0.69"/>
<rect width="6.60217" height="24.0553" rx="3.30109" transform="matrix(0.947866 0.318671 -0.507905 0.861413 130.863 60.1562)" fill="#3E4F66" fill-opacity="0.69"/>
<rect width="6.60217" height="24.0553" rx="3.30109" transform="matrix(0.947866 0.318671 -0.507905 0.861413 147.715 76.3521)" fill="#3E4F66" fill-opacity="0.69"/>
<rect width="6.60217" height="24.0553" rx="3.30109" transform="matrix(0.947866 0.318671 -0.507905 0.861413 28.2178 97.1754)" fill="#3E4F66" fill-opacity="0.69"/>
<rect width="6.60217" height="24.0553" rx="3.30109" transform="matrix(0.947866 0.318671 -0.507905 0.861413 51.198 106.43)" fill="#3E4F66" fill-opacity="0.69"/>
<rect width="6.60217" height="24.0553" rx="3.30109" transform="matrix(0.947866 0.318671 -0.507905 0.861413 138.423 113.371)" fill="#3E4F66" fill-opacity="0.69"/>
<rect width="6.60217" height="24.0553" rx="3.30109" transform="matrix(0.947866 0.318671 -0.507905 0.861413 48.134 71.7247)" fill="#3E4F66" fill-opacity="0.69"/>
<rect width="6.60217" height="24.0553" rx="3.30109" transform="matrix(0.947866 0.318671 -0.507905 0.861413 77.2424 80.9795)" fill="#3E4F66" fill-opacity="0.69"/>
<rect width="6.60217" height="24.0553" rx="3.30109" transform="matrix(0.947866 0.318671 -0.507905 0.861413 98.6907 92.548)" fill="#3E4F66" fill-opacity="0.69"/>
<rect width="6.60217" height="24.0553" rx="3.30109" transform="matrix(0.947866 0.318671 -0.507905 0.861413 179.888 92.548)" fill="#3E4F66" fill-opacity="0.69"/>
<rect width="6.60217" height="24.0553" rx="3.30109" transform="matrix(0.947866 0.318671 -0.507905 0.861413 204.4 60.1562)" fill="#3E4F66" fill-opacity="0.69"/>
<rect width="6.60217" height="24.0553" rx="3.30109" transform="matrix(0.947866 0.318671 -0.507905 0.861413 170.696 39.3329)" fill="#3E4F66" fill-opacity="0.69"/>
<rect width="6.60217" height="24.0553" rx="3.30109" transform="matrix(0.947866 0.318671 -0.507905 0.861413 204.4 97.1754)" fill="#3E4F66" fill-opacity="0.69"/>
</svg>
