<svg width="391" height="519" viewBox="0 0 391 519" fill="none" xmlns="http://www.w3.org/2000/svg">
<rect x="316" y="336" width="75" height="13" fill="#8A919D"/>
<path d="M381 363C379.343 363 378 361.657 378 360V336H391V360C391 361.657 389.657 363 388 363H381Z" fill="#8A919D"/>
<path d="M5 267.5L162 234L330 267.5V99.9339C330 86.8021 327.141 73.8277 321.622 61.912V61.912C312.815 42.8958 297.679 27.5271 278.799 18.4306L274.48 16.3493C260.358 9.54515 244.834 6.15618 229.161 6.45593L90.1799 9.11405C76.9119 9.36781 63.8885 12.7314 52.1569 18.9343V18.9343C35.5257 27.7278 22.29 41.8012 14.5323 58.9402L13.3146 61.6304C7.8346 73.7375 5 86.8742 5 100.164V267.5Z" fill="#EBEBEB"/>
<path d="M5 254.5L12 256.5L163 280.5L330 254.5V420.949C330 434.817 326.981 448.518 321.153 461.101V461.101C312.608 479.551 298.399 494.794 280.593 504.612L277.043 506.57C262.255 514.724 245.644 519 228.757 519H98.7707C80.9783 519 63.5732 513.804 48.6931 504.049V504.049C34.1974 494.546 22.7047 481.115 15.5573 465.324L13.8978 461.658C8.03341 448.702 5 434.644 5 420.422V254.5Z" fill="#3C4B62"/>
<path d="M5 255.25C5 269.333 78.7552 285 169.256 285C259.756 285 330 269.333 330 255.25C330 241.167 259.756 234 169.256 234C78.7552 234 5 241.167 5 255.25Z" fill="#556987"/>
<path d="M45 24.619C45 36.7693 100.827 44 169.329 44C237.831 44 289 38.3407 289 26.1905C289 14.0402 237.831 0 169.329 0C100.827 0 45 12.4688 45 24.619Z" fill="#AFAFAF"/>
<path d="M57 23.2262C57 31.2343 107.107 36 168.59 36C230.074 36 276 32.27 276 24.2619C276 16.2538 230.074 7 168.59 7C107.107 7 57 15.2181 57 23.2262Z" fill="#EBEBEB"/>
<path d="M0 364.273C0 359.978 3.90793 356.742 8.12815 357.543L79 371L163.8 376L253 371L325.742 358.801C329.802 358.12 333.5 361.25 333.5 365.366V365.366C333.5 368.618 331.151 371.394 327.944 371.932L253 384.5L163.8 389.5L80.5 384.5L5.63594 371.015C2.37355 370.428 0 367.588 0 364.273V364.273Z" fill="#8A919D"/>
<path d="M0 173.273C0 168.978 3.90793 165.742 8.12815 166.543L79 180L163.8 185L253 180L325.742 167.801C329.802 167.12 333.5 170.25 333.5 174.366V174.366C333.5 177.618 331.151 180.394 327.944 180.932L253 193.5L163.8 198.5L80.5 193.5L5.63594 180.015C2.37355 179.428 0 176.588 0 173.273V173.273Z" fill="#8A919D"/>
</svg>
